<svg width="1228" height="257" viewBox="0 0 1228 257" fill="none" xmlns="http://www.w3.org/2000/svg">
<mask id="mask0_43_42" style="mask-type:alpha" maskUnits="userSpaceOnUse" x="2" y="2" width="1224" height="253">
<rect x="2" y="2" width="1224" height="253" rx="25" fill="#283036"/>
</mask>
<g mask="url(#mask0_43_42)">
<g filter="url(#filter0_f_43_42)">
<circle cx="-2.5" cy="-4.5" r="79.5" fill="#FF4842" fill-opacity="0.4"/>
</g>
</g>
<g filter="url(#filter1_b_43_42)">
<rect x="2" y="2" width="1224" height="253" rx="25" fill="#2C353D" fill-opacity="0.2"/>
<rect x="1" y="1" width="1226" height="255" rx="26" stroke="url(#paint0_linear_43_42)" stroke-width="2"/>
</g>
<g clip-path="url(#clip0_43_42)">
<path d="M276.953 171.876V168.438H272.739V163.095L272.597 163.14L268.639 164.366L268.561 164.39V168.439H262.314V166.184C262.314 165.134 262.546 164.33 263.003 163.794C263.456 163.264 264.105 162.995 264.933 162.995C265.528 162.995 266.144 163.137 266.764 163.417L266.92 163.487V159.867L266.847 159.84C266.268 159.63 265.481 159.523 264.506 159.523C263.277 159.523 262.16 159.794 261.186 160.331C260.212 160.869 259.445 161.636 258.908 162.613C258.373 163.587 258.102 164.713 258.102 165.959V168.439H255.167V171.876H258.102V186.356H262.314V171.876H268.561V181.077C268.561 184.867 270.326 186.788 273.806 186.788C274.378 186.788 274.98 186.72 275.595 186.587C276.221 186.451 276.646 186.314 276.897 186.169L276.953 186.136V182.667L276.781 182.781C276.553 182.936 276.268 183.062 275.934 183.155C275.599 183.251 275.319 183.299 275.102 183.299C274.287 183.299 273.684 183.076 273.309 182.637C272.93 182.194 272.739 181.419 272.739 180.335V171.876H276.953ZM245.76 183.3C244.232 183.3 243.026 182.786 242.177 181.774C241.322 180.757 240.889 179.308 240.889 177.467C240.889 175.567 241.322 174.08 242.177 173.045C243.027 172.017 244.221 171.496 245.726 171.496C247.187 171.496 248.35 171.994 249.182 172.977C250.019 173.966 250.444 175.441 250.444 177.363C250.444 179.308 250.044 180.803 249.257 181.803C248.474 182.795 247.298 183.3 245.76 183.3ZM245.948 168.007C243.031 168.007 240.714 168.873 239.063 170.58C237.412 172.288 236.575 174.651 236.575 177.604C236.575 180.41 237.392 182.666 239.004 184.31C240.615 185.955 242.808 186.788 245.521 186.788C248.349 186.788 250.62 185.91 252.271 184.179C253.922 182.449 254.758 180.109 254.758 177.224C254.758 174.375 253.973 172.102 252.425 170.469C250.875 168.835 248.696 168.007 245.948 168.007ZM229.783 168.007C227.799 168.007 226.158 168.521 224.904 169.534C223.643 170.554 223.003 171.891 223.003 173.509C223.003 174.351 223.141 175.098 223.413 175.732C223.686 176.367 224.11 176.927 224.672 177.397C225.23 177.863 226.091 178.351 227.232 178.848C228.191 179.248 228.907 179.586 229.361 179.853C229.806 180.114 230.121 180.376 230.299 180.632C230.472 180.882 230.56 181.225 230.56 181.648C230.56 182.852 229.67 183.437 227.839 183.437C227.16 183.437 226.385 183.294 225.536 183.011C224.693 182.731 223.898 182.323 223.178 181.799L223.003 181.672V185.78L223.067 185.81C223.663 186.089 224.415 186.324 225.3 186.509C226.185 186.694 226.987 186.788 227.685 186.788C229.838 186.788 231.572 186.272 232.837 185.252C234.11 184.225 234.756 182.857 234.756 181.182C234.756 179.974 234.408 178.939 233.724 178.103C233.044 177.275 231.864 176.514 230.217 175.842C228.906 175.309 228.066 174.866 227.719 174.527C227.385 174.198 227.215 173.734 227.215 173.147C227.215 172.625 227.425 172.208 227.855 171.87C228.288 171.53 228.891 171.357 229.647 171.357C230.349 171.357 231.067 171.469 231.781 171.689C232.495 171.91 233.122 172.204 233.645 172.565L233.817 172.684V168.787L233.751 168.758C233.268 168.549 232.632 168.37 231.858 168.224C231.089 168.08 230.391 168.007 229.783 168.007ZM212.022 183.299C210.493 183.299 209.288 182.786 208.438 181.774C207.583 180.757 207.151 179.308 207.151 177.467C207.151 175.567 207.584 174.08 208.439 173.045C209.288 172.017 210.482 171.496 211.988 171.496C213.448 171.496 214.611 171.994 215.444 172.977C216.28 173.966 216.705 175.441 216.705 177.363C216.705 179.308 216.306 180.803 215.518 181.803C214.736 182.795 213.56 183.3 212.022 183.3V183.299ZM212.21 168.007C209.292 168.007 206.975 168.873 205.324 170.58C203.674 172.288 202.836 174.651 202.836 177.604C202.836 180.411 203.654 182.666 205.265 184.31C206.877 185.955 209.07 186.788 211.783 186.788C214.61 186.788 216.881 185.91 218.532 184.179C220.183 182.449 221.02 180.109 221.02 177.224C221.02 174.375 220.235 172.102 218.686 170.469C217.136 168.835 214.957 168.007 212.21 168.007H212.21ZM196.442 171.541V168.438H192.281V186.356H196.442V177.19C196.442 175.632 196.791 174.352 197.479 173.385C198.159 172.429 199.064 171.945 200.17 171.945C200.545 171.945 200.966 172.007 201.421 172.131C201.872 172.254 202.199 172.388 202.392 172.528L202.566 172.657V168.408L202.499 168.379C202.111 168.212 201.563 168.128 200.869 168.128C199.824 168.128 198.888 168.468 198.087 169.138C197.383 169.727 196.875 170.534 196.486 171.541H196.442H196.442ZM184.83 168.007C182.921 168.007 181.218 168.422 179.77 169.239C178.318 170.058 177.196 171.228 176.433 172.715C175.672 174.199 175.287 175.931 175.287 177.864C175.287 179.557 175.661 181.11 176.4 182.479C177.14 183.851 178.188 184.924 179.514 185.668C180.838 186.411 182.368 186.788 184.063 186.788C186.04 186.788 187.729 186.387 189.082 185.598L189.137 185.566V181.705L188.962 181.834C188.339 182.291 187.653 182.653 186.926 182.908C186.191 183.167 185.52 183.299 184.932 183.299C183.3 183.299 181.989 182.781 181.038 181.762C180.084 180.74 179.601 179.306 179.601 177.501C179.601 175.684 180.105 174.213 181.099 173.127C182.089 172.045 183.402 171.496 185.001 171.496C186.369 171.496 187.701 171.965 188.962 172.892L189.137 173.02V168.952L189.08 168.919C188.606 168.65 187.959 168.428 187.155 168.26C186.356 168.092 185.573 168.007 184.829 168.007H184.83ZM172.42 168.438H168.26V186.356H172.421V168.439L172.42 168.438ZM170.383 160.806C169.698 160.806 169.101 161.042 168.61 161.51C168.117 161.98 167.867 162.57 167.867 163.267C167.867 163.954 168.114 164.534 168.602 164.99C169.087 165.446 169.686 165.677 170.383 165.677C171.079 165.677 171.68 165.446 172.171 164.991C172.665 164.534 172.916 163.954 172.916 163.267C172.916 162.594 172.672 162.009 172.192 161.529C171.712 161.049 171.103 160.806 170.383 160.806ZM160.001 167.117V186.356H164.247V161.355H158.371L150.9 179.924L143.651 161.355H137.534V186.356H141.525V167.115H141.662L149.317 186.355H152.328L159.864 167.117H160.001H160.001Z" fill="white" fill-opacity="0.2"/>
<path d="M103.574 172.827H84V153H103.574V172.827Z" fill="white" fill-opacity="0.2"/>
<path d="M125.186 172.827H105.612V153H125.186V172.827Z" fill="white" fill-opacity="0.2"/>
<path d="M103.573 194.725H84V174.899H103.573V194.725Z" fill="white" fill-opacity="0.2"/>
<path d="M125.186 194.725H105.612V174.899H125.186V194.725Z" fill="white" fill-opacity="0.2"/>
</g>
<g clip-path="url(#clip1_43_42)">
<path d="M709.986 187.403L712.407 181.811C715.022 183.753 718.496 184.762 721.931 184.762C724.468 184.762 726.068 183.792 726.068 182.316C726.029 178.2 710.884 181.423 710.767 171.094C710.728 165.852 715.412 161.814 722.048 161.814C725.99 161.814 729.933 162.784 732.743 164.998L730.479 170.706C727.903 169.075 724.702 167.91 721.658 167.91C719.589 167.91 718.223 168.881 718.223 170.124C718.262 174.162 733.524 171.949 733.68 181.811C733.68 187.17 729.113 190.936 722.556 190.936C717.754 190.936 713.343 189.81 709.986 187.403ZM802.849 179.792L809.524 183.481C807.025 187.946 802.263 190.936 796.759 190.936C788.679 190.936 782.121 184.413 782.121 176.375C782.121 168.337 788.679 161.814 796.759 161.814C802.224 161.814 807.025 164.842 809.524 169.269L802.849 172.958C801.639 170.861 799.375 169.425 796.759 169.425C792.895 169.425 789.772 172.531 789.772 176.375C789.772 180.219 792.895 183.326 796.759 183.326C799.375 183.326 801.639 181.889 802.848 179.792H802.849ZM737.037 149.738H745.39V190.393H737.037V149.738ZM812.802 149.738H821.156V173.618L830.602 162.396H840.829L829.158 175.909L841.766 190.393H831.071L821.156 178.2V190.393H812.802V149.738ZM770.216 179.87V172.997C769.006 170.978 766.508 169.425 763.698 169.425C759.833 169.425 756.711 172.531 756.711 176.375C756.711 180.219 759.833 183.326 763.698 183.326C766.508 183.326 769.006 181.85 770.216 179.87V179.87ZM770.216 162.397H778.57V190.354H770.216V187.054C768.85 189.345 765.454 190.937 761.902 190.937C754.563 190.937 748.786 184.413 748.786 176.337C748.786 168.26 754.563 161.814 761.902 161.814C765.454 161.814 768.85 163.406 770.216 165.697V162.396V162.397Z" fill="white" fill-opacity="0.2"/>
<path d="M658.344 179.831C658.344 182.665 656.041 184.957 653.191 184.957C652.515 184.957 651.844 184.825 651.219 184.568C650.593 184.31 650.025 183.933 649.547 183.457C649.068 182.981 648.689 182.415 648.43 181.793C648.171 181.171 648.038 180.504 648.039 179.831C648.039 176.996 650.342 174.705 653.191 174.705H658.344V179.831ZM660.92 179.831C660.92 176.996 663.223 174.705 666.073 174.705C668.922 174.705 671.226 176.996 671.226 179.831V192.645C671.226 195.479 668.923 197.77 666.073 197.77C665.396 197.771 664.726 197.639 664.1 197.381C663.475 197.124 662.907 196.747 662.428 196.27C661.95 195.794 661.57 195.229 661.312 194.607C661.053 193.985 660.92 193.318 660.921 192.645V179.831H660.92Z" fill="white" fill-opacity="0.2"/>
<path d="M666.073 159.251C665.396 159.252 664.726 159.12 664.1 158.862C663.475 158.605 662.907 158.227 662.428 157.751C661.95 157.275 661.57 156.71 661.311 156.088C661.053 155.465 660.92 154.799 660.921 154.125C660.92 151.291 663.223 149 666.073 149C668.922 149 671.225 151.291 671.225 154.125V159.251H666.073ZM666.073 161.853C668.922 161.853 671.225 164.144 671.225 166.978C671.225 169.813 668.922 172.104 666.073 172.104H653.152C652.476 172.105 651.805 171.972 651.18 171.715C650.554 171.458 649.986 171.08 649.508 170.604C649.029 170.128 648.649 169.563 648.391 168.94C648.132 168.318 647.999 167.651 648 166.978C648 164.144 650.303 161.853 653.152 161.853H666.073L666.073 161.853Z" fill="white" fill-opacity="0.2"/>
<path d="M686.722 166.978C686.722 164.144 689.025 161.853 691.874 161.853C694.724 161.853 697.027 164.144 697.027 166.978C697.027 169.813 694.724 172.104 691.874 172.104H686.722V166.978ZM684.145 166.978C684.145 169.813 681.843 172.104 678.993 172.104C678.316 172.105 677.646 171.972 677.02 171.715C676.395 171.458 675.827 171.08 675.348 170.604C674.87 170.128 674.49 169.563 674.231 168.94C673.973 168.318 673.84 167.651 673.841 166.978V154.125C673.841 151.291 676.144 149 678.993 149C681.842 149 684.146 151.291 684.146 154.125V166.978L684.145 166.978Z" fill="white" fill-opacity="0.2"/>
<path d="M678.993 187.519C681.842 187.519 684.146 189.81 684.146 192.645C684.146 195.479 681.843 197.77 678.993 197.77C678.316 197.771 677.646 197.639 677.02 197.382C676.395 197.124 675.827 196.747 675.348 196.271C674.87 195.794 674.49 195.229 674.231 194.607C673.973 193.985 673.84 193.318 673.841 192.645V187.519H678.993ZM678.993 184.956C678.316 184.957 677.646 184.825 677.02 184.567C676.395 184.31 675.827 183.932 675.348 183.456C674.87 182.98 674.49 182.415 674.231 181.793C673.973 181.171 673.84 180.504 673.841 179.831C673.841 176.996 676.144 174.705 678.993 174.705H691.914C694.763 174.705 697.066 176.996 697.066 179.831C697.066 182.665 694.763 184.957 691.913 184.957H678.993V184.956Z" fill="white" fill-opacity="0.2"/>
</g>
<g clip-path="url(#clip2_43_42)">
<path d="M536.11 179.168L540.466 182.043C539.052 184.104 535.671 187.641 529.825 187.641C522.567 187.641 517.161 182.081 517.161 175.008C517.161 167.481 522.624 162.375 529.214 162.375C535.843 162.375 539.09 167.595 540.141 170.412L540.714 171.85L523.637 178.847C524.935 181.381 526.961 182.667 529.825 182.667C532.691 182.667 534.677 181.267 536.11 179.168ZM522.72 174.611L534.124 169.921C533.493 168.351 531.621 167.236 529.386 167.236C526.54 167.236 522.586 169.732 522.72 174.611Z" fill="white" fill-opacity="0.2"/>
<path d="M508.927 149.497H514.428V186.487H508.927V149.497V149.497Z" fill="white" fill-opacity="0.2"/>
<path d="M500.255 163.359H505.565V185.825C505.565 195.148 500.007 198.987 493.435 198.987C487.246 198.987 483.522 194.864 482.127 191.517L486.998 189.512C487.876 191.574 489.997 194.014 493.435 194.014C497.657 194.014 500.255 191.423 500.255 186.582V184.766H500.064C498.803 186.279 496.396 187.64 493.34 187.64C486.96 187.64 481.114 182.137 481.114 175.046C481.114 167.916 486.96 162.357 493.34 162.357C496.377 162.357 498.803 163.699 500.064 165.174H500.255V163.359V163.359ZM500.637 175.046C500.637 170.583 497.638 167.33 493.817 167.33C489.959 167.33 486.711 170.583 486.711 175.046C486.711 179.452 489.959 182.648 493.817 182.648C497.638 182.667 500.637 179.452 500.637 175.046H500.637Z" fill="white" fill-opacity="0.2"/>
<path d="M450.914 174.951C450.914 182.232 445.183 187.584 438.153 187.584C431.124 187.584 425.393 182.213 425.393 174.951C425.393 167.633 431.124 162.3 438.153 162.3C445.183 162.3 450.914 167.633 450.914 174.951ZM445.336 174.951C445.336 170.413 442.012 167.292 438.153 167.292C434.295 167.292 430.971 170.413 430.971 174.951C430.971 179.452 434.295 182.61 438.153 182.61C442.012 182.61 445.336 179.452 445.336 174.951Z" fill="white" fill-opacity="0.2"/>
<path d="M478.784 175.008C478.784 182.289 473.053 187.64 466.024 187.64C458.994 187.64 453.264 182.288 453.264 175.008C453.264 167.689 458.994 162.375 466.024 162.375C473.053 162.375 478.784 167.67 478.784 175.008ZM473.187 175.008C473.187 170.469 469.863 167.349 466.005 167.349C462.146 167.349 458.822 170.469 458.822 175.008C458.822 179.509 462.146 182.667 466.005 182.667C469.882 182.667 473.187 179.49 473.187 175.008Z" fill="white" fill-opacity="0.2"/>
<path d="M404.419 182.1C396.415 182.1 390.15 175.708 390.15 167.784C390.15 159.86 396.415 153.468 404.419 153.468C408.736 153.468 411.888 155.151 414.218 157.307L418.058 153.506C414.811 150.424 410.474 148.078 404.419 148.078C393.454 148.079 384.228 156.929 384.228 167.784C384.228 178.639 393.454 187.489 404.419 187.489C410.341 187.489 414.811 185.56 418.306 181.967C421.897 178.412 423.005 173.419 423.005 169.372C423.005 168.105 422.853 166.8 422.681 165.836H404.419V171.093H417.427C417.045 174.384 415.995 176.634 414.448 178.166C412.576 180.038 409.615 182.1 404.419 182.1Z" fill="white" fill-opacity="0.2"/>
</g>
<g clip-path="url(#clip3_43_42)">
<path d="M1061.52 169.196H1053.88V170C1056.27 170 1056.65 170.508 1056.65 173.515V178.935C1056.65 181.941 1056.27 182.492 1053.88 182.492C1052.05 182.238 1050.81 181.264 1049.1 179.401L1047.14 177.284C1049.78 176.818 1051.19 175.167 1051.19 173.303C1051.19 170.975 1049.19 169.197 1045.43 169.197H1037.92V170C1040.31 170 1040.7 170.508 1040.7 173.515V178.935C1040.7 181.941 1040.31 182.492 1037.92 182.492V183.296H1046.41V182.492C1044.02 182.492 1043.64 181.941 1043.64 178.935V177.411H1044.37L1049.1 183.296H1061.52C1067.62 183.296 1070.26 180.079 1070.26 176.225C1070.26 172.372 1067.62 169.196 1061.52 169.196ZM1043.64 176.098V170.466H1045.39C1047.31 170.466 1048.16 171.779 1048.16 173.304C1048.16 174.786 1047.31 176.098 1045.39 176.098H1043.64ZM1061.64 181.984H1061.35C1059.81 181.984 1059.6 181.603 1059.6 179.655V170.466H1061.64C1066.08 170.466 1066.89 173.684 1066.89 176.183C1066.89 178.766 1066.08 181.984 1061.64 181.984ZM1014.16 177.665L1017.11 169.027C1017.96 166.528 1017.57 165.809 1014.84 165.809V164.962H1022.86V165.809C1020.18 165.809 1019.54 166.444 1018.47 169.535L1013.61 184.016H1013.05L1008.7 170.762L1004.26 184.016H1003.71L998.974 169.535C997.95 166.444 997.267 165.809 994.793 165.809V164.962H1004.26V165.809C1001.75 165.809 1001.06 166.402 1001.96 169.027L1004.82 177.665L1009.13 164.962H1009.94L1014.16 177.665ZM1028.67 183.847C1023.97 183.847 1020.13 180.417 1020.13 176.224C1020.13 172.075 1023.97 168.645 1028.67 168.645C1033.36 168.645 1037.2 172.075 1037.2 176.224C1037.2 180.417 1033.36 183.847 1028.67 183.847ZM1028.67 169.958C1024.74 169.958 1023.38 173.472 1023.38 176.225C1023.38 179.02 1024.74 182.492 1028.67 182.492C1032.63 182.492 1034 179.02 1034 176.225C1034 173.472 1032.63 169.958 1028.67 169.958Z" fill="white" fill-opacity="0.2"/>
<path d="M1080.8 182.45V183.296H1071.03V182.45C1073.89 182.45 1074.4 181.73 1074.4 177.495V170.721C1074.4 166.485 1073.89 165.808 1071.03 165.808V164.961H1079.86C1084.25 164.961 1086.69 167.206 1086.69 170.212C1086.69 173.134 1084.25 175.42 1079.86 175.42H1077.43V177.494C1077.43 181.73 1077.94 182.45 1080.8 182.45ZM1079.86 166.485H1077.43V173.854H1079.86C1082.25 173.854 1083.36 172.202 1083.36 170.212C1083.36 168.18 1082.25 166.485 1079.86 166.485ZM1115.99 179.316L1115.78 180.078C1115.4 181.476 1114.93 181.984 1111.9 181.984H1111.3C1109.08 181.984 1108.7 181.476 1108.7 178.47V176.522C1112.03 176.522 1112.28 176.818 1112.28 179.02H1113.09V172.71H1112.28C1112.28 174.912 1112.03 175.208 1108.7 175.208V170.466H1111.05C1114.07 170.466 1114.54 170.975 1114.93 172.372L1115.14 173.176H1115.82L1115.53 169.196H1102.98V170C1105.37 170 1105.76 170.508 1105.76 173.515V178.935C1105.76 181.685 1105.43 182.378 1103.55 182.477C1101.76 182.205 1100.53 181.236 1098.84 179.4L1096.88 177.283C1099.53 176.817 1100.94 175.166 1100.94 173.303C1100.94 170.975 1098.93 169.196 1095.18 169.196H1087.67V170C1090.06 170 1090.44 170.508 1090.44 173.515V178.935C1090.44 181.941 1090.06 182.492 1087.67 182.492V183.296H1096.16V182.491C1093.77 182.491 1093.38 181.941 1093.38 178.935V177.411H1094.11L1098.85 183.296H1116.38L1116.64 179.316H1115.99V179.316ZM1093.38 176.098V170.466H1095.13C1097.05 170.466 1097.91 171.779 1097.91 173.304C1097.91 174.786 1097.05 176.098 1095.13 176.098H1093.38ZM1124.66 183.847C1122.95 183.847 1121.46 182.958 1120.82 182.407C1120.6 182.619 1120.22 183.254 1120.13 183.847H1119.32V178.004H1120.18C1120.52 180.798 1122.48 182.45 1125 182.45C1126.36 182.45 1127.47 181.688 1127.47 180.417C1127.47 179.316 1126.49 178.469 1124.74 177.665L1122.31 176.522C1120.6 175.717 1119.32 174.319 1119.32 172.457C1119.32 170.424 1121.24 168.688 1123.89 168.688C1125.3 168.688 1126.49 169.196 1127.22 169.789C1127.43 169.62 1127.64 169.154 1127.77 168.645H1128.58V173.643H1127.68C1127.39 171.652 1126.28 170.001 1124.02 170.001C1122.82 170.001 1121.71 170.679 1121.71 171.738C1121.71 172.838 1122.61 173.431 1124.66 174.363L1127 175.506C1129.05 176.479 1129.86 178.047 1129.86 179.317C1129.86 181.984 1127.51 183.847 1124.66 183.847V183.847ZM1137.79 183.847C1136.09 183.847 1134.59 182.958 1133.96 182.407C1133.74 182.619 1133.36 183.254 1133.27 183.847H1132.46V178.004H1133.32C1133.66 180.798 1135.62 182.45 1138.14 182.45C1139.5 182.45 1140.61 181.688 1140.61 180.417C1140.61 179.316 1139.63 178.469 1137.88 177.665L1135.45 176.522C1133.74 175.717 1132.46 174.319 1132.46 172.457C1132.46 170.424 1134.38 168.688 1137.03 168.688C1138.43 168.688 1139.63 169.196 1140.35 169.789C1140.57 169.62 1140.78 169.154 1140.91 168.645H1141.72V173.643H1140.82C1140.52 171.652 1139.42 170.001 1137.16 170.001C1135.96 170.001 1134.85 170.679 1134.85 171.738C1134.85 172.838 1135.75 173.431 1137.79 174.363L1140.14 175.506C1142.19 176.479 1143 178.047 1143 179.317C1143 181.984 1140.65 183.847 1137.79 183.847V183.847Z" fill="white" fill-opacity="0.2"/>
<path d="M952.128 173.843C952.128 181.261 956.472 187.67 962.769 190.708L953.763 166.217C952.683 168.617 952.126 171.215 952.128 173.844V173.843ZM983.755 172.898C983.755 170.582 982.917 168.978 982.197 167.729C981.24 166.186 980.344 164.879 980.344 163.335C980.344 161.613 981.66 160.009 983.514 160.009C983.598 160.009 983.677 160.02 983.759 160.024C980.4 156.97 975.924 155.105 971.009 155.105C964.413 155.105 958.61 158.464 955.234 163.552C955.677 163.564 956.094 163.574 956.449 163.574C958.424 163.574 961.481 163.336 961.481 163.336C962.499 163.276 962.618 164.76 961.602 164.88C961.602 164.88 960.579 164.999 959.441 165.058L966.316 185.356L970.448 173.057L967.507 165.058C966.49 164.998 965.527 164.879 965.527 164.879C964.509 164.82 964.629 163.276 965.646 163.335C965.646 163.335 968.764 163.573 970.619 163.573C972.593 163.573 975.651 163.335 975.651 163.335C976.669 163.276 976.789 164.759 975.772 164.879C975.772 164.879 974.747 164.998 973.611 165.057L980.434 185.202L982.317 178.955C983.133 176.364 983.755 174.502 983.755 172.898ZM971.34 175.482L965.675 191.82C967.407 192.326 969.203 192.583 971.009 192.583C973.144 192.584 975.264 192.225 977.279 191.521C977.226 191.439 977.181 191.353 977.144 191.263L971.34 175.482ZM987.576 164.853C987.657 165.45 987.703 166.09 987.703 166.78C987.703 168.681 987.345 170.819 986.267 173.492L980.5 190.041C986.113 186.792 989.889 180.757 989.889 173.844C989.889 170.586 989.05 167.522 987.576 164.853ZM971.009 152C958.874 152 949 161.799 949 173.843C949 185.889 958.874 195.688 971.009 195.688C983.144 195.688 993.019 185.889 993.019 173.843C993.019 161.799 983.144 152 971.009 152ZM971.009 194.686C959.43 194.686 950.009 185.336 950.009 173.843C950.009 162.351 959.43 153.001 971.009 153.001C982.587 153.001 992.008 162.351 992.008 173.843C992.008 185.336 982.587 194.686 971.009 194.686Z" fill="white" fill-opacity="0.2"/>
</g>
<path d="M442.576 66.32V68.552H438.136V83H435.4V68.552H430.936V66.32H442.576ZM448.083 71.696C448.483 71.024 449.011 70.504 449.667 70.136C450.339 69.752 451.131 69.56 452.043 69.56V72.392H451.347C450.275 72.392 449.459 72.664 448.899 73.208C448.355 73.752 448.083 74.696 448.083 76.04V83H445.347V69.776H448.083V71.696ZM466.534 69.776V83H463.798V81.44C463.366 81.984 462.798 82.416 462.094 82.736C461.406 83.04 460.67 83.192 459.886 83.192C458.846 83.192 457.91 82.976 457.078 82.544C456.262 82.112 455.614 81.472 455.134 80.624C454.67 79.776 454.438 78.752 454.438 77.552V69.776H457.15V77.144C457.15 78.328 457.446 79.24 458.038 79.88C458.63 80.504 459.438 80.816 460.462 80.816C461.486 80.816 462.294 80.504 462.886 79.88C463.494 79.24 463.798 78.328 463.798 77.144V69.776H466.534ZM474.944 83.216C473.904 83.216 472.968 83.032 472.136 82.664C471.32 82.28 470.672 81.768 470.192 81.128C469.712 80.472 469.456 79.744 469.424 78.944H472.256C472.304 79.504 472.568 79.976 473.048 80.36C473.544 80.728 474.16 80.912 474.896 80.912C475.664 80.912 476.256 80.768 476.672 80.48C477.104 80.176 477.32 79.792 477.32 79.328C477.32 78.832 477.08 78.464 476.6 78.224C476.136 77.984 475.392 77.72 474.368 77.432C473.376 77.16 472.568 76.896 471.944 76.64C471.32 76.384 470.776 75.992 470.312 75.464C469.864 74.936 469.64 74.24 469.64 73.376C469.64 72.672 469.848 72.032 470.264 71.456C470.68 70.864 471.272 70.4 472.04 70.064C472.824 69.728 473.72 69.56 474.728 69.56C476.232 69.56 477.44 69.944 478.352 70.712C479.28 71.464 479.776 72.496 479.84 73.808H477.104C477.056 73.216 476.816 72.744 476.384 72.392C475.952 72.04 475.368 71.864 474.632 71.864C473.912 71.864 473.36 72 472.976 72.272C472.592 72.544 472.4 72.904 472.4 73.352C472.4 73.704 472.528 74 472.784 74.24C473.04 74.48 473.352 74.672 473.72 74.816C474.088 74.944 474.632 75.112 475.352 75.32C476.312 75.576 477.096 75.84 477.704 76.112C478.328 76.368 478.864 76.752 479.312 77.264C479.76 77.776 479.992 78.456 480.008 79.304C480.008 80.056 479.8 80.728 479.384 81.32C478.968 81.912 478.376 82.376 477.608 82.712C476.856 83.048 475.968 83.216 474.944 83.216ZM486.156 72.008V79.328C486.156 79.824 486.268 80.184 486.492 80.408C486.732 80.616 487.132 80.72 487.692 80.72H489.372V83H487.212C485.98 83 485.036 82.712 484.38 82.136C483.724 81.56 483.396 80.624 483.396 79.328V72.008H481.836V69.776H483.396V66.488H486.156V69.776H489.372V72.008H486.156ZM504.014 76.064C504.014 76.56 503.982 77.008 503.918 77.408H493.814C493.894 78.464 494.286 79.312 494.99 79.952C495.694 80.592 496.558 80.912 497.582 80.912C499.054 80.912 500.094 80.296 500.702 79.064H503.654C503.254 80.28 502.526 81.28 501.47 82.064C500.43 82.832 499.134 83.216 497.582 83.216C496.318 83.216 495.182 82.936 494.174 82.376C493.182 81.8 492.398 81 491.822 79.976C491.262 78.936 490.982 77.736 490.982 76.376C490.982 75.016 491.254 73.824 491.798 72.8C492.358 71.76 493.134 70.96 494.126 70.4C495.134 69.84 496.286 69.56 497.582 69.56C498.83 69.56 499.942 69.832 500.918 70.376C501.894 70.92 502.654 71.688 503.198 72.68C503.742 73.656 504.014 74.784 504.014 76.064ZM501.158 75.2C501.142 74.192 500.782 73.384 500.078 72.776C499.374 72.168 498.502 71.864 497.462 71.864C496.518 71.864 495.71 72.168 495.038 72.776C494.366 73.368 493.966 74.176 493.838 75.2H501.158ZM505.794 76.328C505.794 75 506.066 73.824 506.61 72.8C507.17 71.776 507.922 70.984 508.866 70.424C509.826 69.848 510.89 69.56 512.058 69.56C512.922 69.56 513.77 69.752 514.602 70.136C515.45 70.504 516.122 71 516.618 71.624V65.24H519.378V83H516.618V81.008C516.17 81.648 515.546 82.176 514.746 82.592C513.962 83.008 513.058 83.216 512.034 83.216C510.882 83.216 509.826 82.928 508.866 82.352C507.922 81.76 507.17 80.944 506.61 79.904C506.066 78.848 505.794 77.656 505.794 76.328ZM516.618 76.376C516.618 75.464 516.426 74.672 516.042 74C515.674 73.328 515.186 72.816 514.578 72.464C513.97 72.112 513.314 71.936 512.61 71.936C511.906 71.936 511.25 72.112 510.642 72.464C510.034 72.8 509.538 73.304 509.154 73.976C508.786 74.632 508.602 75.416 508.602 76.328C508.602 77.24 508.786 78.04 509.154 78.728C509.538 79.416 510.034 79.944 510.642 80.312C511.266 80.664 511.922 80.84 512.61 80.84C513.314 80.84 513.97 80.664 514.578 80.312C515.186 79.96 515.674 79.448 516.042 78.776C516.426 78.088 516.618 77.288 516.618 76.376ZM545.214 69.56C546.254 69.56 547.182 69.776 547.998 70.208C548.83 70.64 549.478 71.28 549.942 72.128C550.422 72.976 550.662 74 550.662 75.2V83H547.95V75.608C547.95 74.424 547.654 73.52 547.062 72.896C546.47 72.256 545.662 71.936 544.638 71.936C543.614 71.936 542.798 72.256 542.19 72.896C541.598 73.52 541.302 74.424 541.302 75.608V83H538.59V75.608C538.59 74.424 538.294 73.52 537.702 72.896C537.11 72.256 536.302 71.936 535.278 71.936C534.254 71.936 533.438 72.256 532.83 72.896C532.238 73.52 531.942 74.424 531.942 75.608V83H529.206V69.776H531.942V71.288C532.39 70.744 532.958 70.32 533.646 70.016C534.334 69.712 535.07 69.56 535.854 69.56C536.91 69.56 537.854 69.784 538.686 70.232C539.518 70.68 540.158 71.328 540.606 72.176C541.006 71.376 541.63 70.744 542.478 70.28C543.326 69.8 544.238 69.56 545.214 69.56ZM559.88 83.216C558.632 83.216 557.504 82.936 556.496 82.376C555.488 81.8 554.696 81 554.12 79.976C553.544 78.936 553.256 77.736 553.256 76.376C553.256 75.032 553.552 73.84 554.144 72.8C554.736 71.76 555.544 70.96 556.568 70.4C557.592 69.84 558.736 69.56 560 69.56C561.264 69.56 562.408 69.84 563.432 70.4C564.456 70.96 565.264 71.76 565.856 72.8C566.448 73.84 566.744 75.032 566.744 76.376C566.744 77.72 566.44 78.912 565.832 79.952C565.224 80.992 564.392 81.8 563.336 82.376C562.296 82.936 561.144 83.216 559.88 83.216ZM559.88 80.84C560.584 80.84 561.24 80.672 561.848 80.336C562.472 80 562.976 79.496 563.36 78.824C563.744 78.152 563.936 77.336 563.936 76.376C563.936 75.416 563.752 74.608 563.384 73.952C563.016 73.28 562.528 72.776 561.92 72.44C561.312 72.104 560.656 71.936 559.952 71.936C559.248 71.936 558.592 72.104 557.984 72.44C557.392 72.776 556.92 73.28 556.568 73.952C556.216 74.608 556.04 75.416 556.04 76.376C556.04 77.8 556.4 78.904 557.12 79.688C557.856 80.456 558.776 80.84 559.88 80.84ZM572.184 71.696C572.584 71.024 573.112 70.504 573.768 70.136C574.44 69.752 575.232 69.56 576.144 69.56V72.392H575.448C574.376 72.392 573.56 72.664 573 73.208C572.456 73.752 572.184 74.696 572.184 76.04V83H569.448V69.776H572.184V71.696ZM590.779 76.064C590.779 76.56 590.747 77.008 590.683 77.408H580.579C580.659 78.464 581.051 79.312 581.755 79.952C582.459 80.592 583.323 80.912 584.347 80.912C585.819 80.912 586.859 80.296 587.467 79.064H590.419C590.019 80.28 589.291 81.28 588.235 82.064C587.195 82.832 585.899 83.216 584.347 83.216C583.083 83.216 581.947 82.936 580.939 82.376C579.947 81.8 579.163 81 578.587 79.976C578.027 78.936 577.747 77.736 577.747 76.376C577.747 75.016 578.019 73.824 578.563 72.8C579.123 71.76 579.899 70.96 580.891 70.4C581.899 69.84 583.051 69.56 584.347 69.56C585.595 69.56 586.707 69.832 587.683 70.376C588.659 70.92 589.419 71.688 589.963 72.68C590.507 73.656 590.779 74.784 590.779 76.064ZM587.923 75.2C587.907 74.192 587.547 73.384 586.843 72.776C586.139 72.168 585.267 71.864 584.227 71.864C583.283 71.864 582.475 72.168 581.803 72.776C581.131 73.368 580.731 74.176 580.603 75.2H587.923ZM602.898 72.008V79.328C602.898 79.824 603.01 80.184 603.234 80.408C603.474 80.616 603.874 80.72 604.434 80.72H606.114V83H603.954C602.722 83 601.778 82.712 601.122 82.136C600.466 81.56 600.138 80.624 600.138 79.328V72.008H598.578V69.776H600.138V66.488H602.898V69.776H606.114V72.008H602.898ZM615.476 69.56C616.484 69.56 617.38 69.776 618.164 70.208C618.964 70.64 619.588 71.28 620.036 72.128C620.5 72.976 620.732 74 620.732 75.2V83H618.02V75.608C618.02 74.424 617.724 73.52 617.132 72.896C616.54 72.256 615.732 71.936 614.708 71.936C613.684 71.936 612.868 72.256 612.26 72.896C611.668 73.52 611.372 74.424 611.372 75.608V83H608.636V65.24H611.372V71.312C611.836 70.752 612.42 70.32 613.124 70.016C613.844 69.712 614.628 69.56 615.476 69.56ZM623.31 76.328C623.31 75 623.582 73.824 624.126 72.8C624.686 71.776 625.438 70.984 626.382 70.424C627.342 69.848 628.398 69.56 629.55 69.56C630.59 69.56 631.494 69.768 632.262 70.184C633.046 70.584 633.67 71.088 634.134 71.696V69.776H636.894V83H634.134V81.032C633.67 81.656 633.038 82.176 632.238 82.592C631.438 83.008 630.526 83.216 629.502 83.216C628.366 83.216 627.326 82.928 626.382 82.352C625.438 81.76 624.686 80.944 624.126 79.904C623.582 78.848 623.31 77.656 623.31 76.328ZM634.134 76.376C634.134 75.464 633.942 74.672 633.558 74C633.19 73.328 632.702 72.816 632.094 72.464C631.486 72.112 630.83 71.936 630.126 71.936C629.422 71.936 628.766 72.112 628.158 72.464C627.55 72.8 627.054 73.304 626.67 73.976C626.302 74.632 626.118 75.416 626.118 76.328C626.118 77.24 626.302 78.04 626.67 78.728C627.054 79.416 627.55 79.944 628.158 80.312C628.782 80.664 629.438 80.84 630.126 80.84C630.83 80.84 631.486 80.664 632.094 80.312C632.702 79.96 633.19 79.448 633.558 78.776C633.942 78.088 634.134 77.288 634.134 76.376ZM647.16 69.56C648.2 69.56 649.128 69.776 649.944 70.208C650.776 70.64 651.424 71.28 651.888 72.128C652.352 72.976 652.584 74 652.584 75.2V83H649.872V75.608C649.872 74.424 649.576 73.52 648.984 72.896C648.392 72.256 647.584 71.936 646.56 71.936C645.536 71.936 644.72 72.256 644.112 72.896C643.52 73.52 643.224 74.424 643.224 75.608V83H640.488V69.776H643.224V71.288C643.672 70.744 644.24 70.32 644.928 70.016C645.632 69.712 646.376 69.56 647.16 69.56ZM661.588 68V65.504H666.58V83H663.82V68H661.588ZM681.618 67.856H673.578V72.632C673.914 72.184 674.41 71.808 675.066 71.504C675.738 71.2 676.45 71.048 677.202 71.048C678.546 71.048 679.634 71.336 680.466 71.912C681.314 72.488 681.914 73.216 682.266 74.096C682.634 74.976 682.818 75.904 682.818 76.88C682.818 78.064 682.586 79.12 682.122 80.048C681.674 80.96 680.994 81.68 680.082 82.208C679.186 82.736 678.082 83 676.77 83C675.026 83 673.626 82.568 672.57 81.704C671.514 80.84 670.882 79.696 670.674 78.272H673.338C673.514 79.024 673.906 79.624 674.514 80.072C675.122 80.504 675.882 80.72 676.794 80.72C677.93 80.72 678.778 80.376 679.338 79.688C679.914 79 680.202 78.088 680.202 76.952C680.202 75.8 679.914 74.92 679.338 74.312C678.762 73.688 677.914 73.376 676.794 73.376C676.01 73.376 675.346 73.576 674.802 73.976C674.274 74.36 673.89 74.888 673.65 75.56H671.058V65.456H681.618V67.856ZM685.667 74.024C685.667 71.256 686.131 69.096 687.059 67.544C688.003 65.976 689.619 65.192 691.907 65.192C694.195 65.192 695.803 65.976 696.731 67.544C697.675 69.096 698.147 71.256 698.147 74.024C698.147 76.824 697.675 79.016 696.731 80.6C695.803 82.168 694.195 82.952 691.907 82.952C689.619 82.952 688.003 82.168 687.059 80.6C686.131 79.016 685.667 76.824 685.667 74.024ZM695.459 74.024C695.459 72.728 695.371 71.632 695.195 70.736C695.035 69.84 694.699 69.112 694.187 68.552C693.675 67.976 692.915 67.688 691.907 67.688C690.899 67.688 690.139 67.976 689.627 68.552C689.115 69.112 688.771 69.84 688.595 70.736C688.435 71.632 688.355 72.728 688.355 74.024C688.355 75.368 688.435 76.496 688.595 77.408C688.755 78.32 689.091 79.056 689.603 79.616C690.131 80.176 690.899 80.456 691.907 80.456C692.915 80.456 693.675 80.176 694.187 79.616C694.715 79.056 695.059 78.32 695.219 77.408C695.379 76.496 695.459 75.368 695.459 74.024ZM714.29 75.488H709.442V80.456H706.898V75.488H702.05V73.184H706.898V68.216H709.442V73.184H714.29V75.488ZM727.505 71.744C727.969 71.104 728.601 70.584 729.401 70.184C730.217 69.768 731.121 69.56 732.113 69.56C733.281 69.56 734.337 69.84 735.281 70.4C736.225 70.96 736.969 71.76 737.513 72.8C738.057 73.824 738.329 75 738.329 76.328C738.329 77.656 738.057 78.848 737.513 79.904C736.969 80.944 736.217 81.76 735.257 82.352C734.313 82.928 733.265 83.216 732.113 83.216C731.089 83.216 730.177 83.016 729.377 82.616C728.593 82.216 727.969 81.704 727.505 81.08V83H724.769V65.24H727.505V71.744ZM735.545 76.328C735.545 75.416 735.353 74.632 734.969 73.976C734.601 73.304 734.105 72.8 733.481 72.464C732.873 72.112 732.217 71.936 731.513 71.936C730.825 71.936 730.169 72.112 729.545 72.464C728.937 72.816 728.441 73.328 728.057 74C727.689 74.672 727.505 75.464 727.505 76.376C727.505 77.288 727.689 78.088 728.057 78.776C728.441 79.448 728.937 79.96 729.545 80.312C730.169 80.664 730.825 80.84 731.513 80.84C732.217 80.84 732.873 80.664 733.481 80.312C734.105 79.944 734.601 79.416 734.969 78.728C735.353 78.04 735.545 77.24 735.545 76.328ZM743.77 71.696C744.17 71.024 744.698 70.504 745.354 70.136C746.026 69.752 746.818 69.56 747.73 69.56V72.392H747.034C745.962 72.392 745.146 72.664 744.586 73.208C744.042 73.752 743.77 74.696 743.77 76.04V83H741.034V69.776H743.77V71.696ZM749.333 76.328C749.333 75 749.605 73.824 750.149 72.8C750.709 71.776 751.461 70.984 752.405 70.424C753.365 69.848 754.421 69.56 755.573 69.56C756.613 69.56 757.517 69.768 758.285 70.184C759.069 70.584 759.693 71.088 760.157 71.696V69.776H762.917V83H760.157V81.032C759.693 81.656 759.061 82.176 758.261 82.592C757.461 83.008 756.549 83.216 755.525 83.216C754.389 83.216 753.349 82.928 752.405 82.352C751.461 81.76 750.709 80.944 750.149 79.904C749.605 78.848 749.333 77.656 749.333 76.328ZM760.157 76.376C760.157 75.464 759.965 74.672 759.581 74C759.213 73.328 758.725 72.816 758.117 72.464C757.509 72.112 756.853 71.936 756.149 71.936C755.445 71.936 754.789 72.112 754.181 72.464C753.573 72.8 753.077 73.304 752.693 73.976C752.325 74.632 752.141 75.416 752.141 76.328C752.141 77.24 752.325 78.04 752.693 78.728C753.077 79.416 753.573 79.944 754.181 80.312C754.805 80.664 755.461 80.84 756.149 80.84C756.853 80.84 757.509 80.664 758.117 80.312C758.725 79.96 759.213 79.448 759.581 78.776C759.965 78.088 760.157 77.288 760.157 76.376ZM773.183 69.56C774.223 69.56 775.151 69.776 775.967 70.208C776.799 70.64 777.447 71.28 777.911 72.128C778.375 72.976 778.607 74 778.607 75.2V83H775.895V75.608C775.895 74.424 775.599 73.52 775.007 72.896C774.415 72.256 773.607 71.936 772.583 71.936C771.559 71.936 770.743 72.256 770.135 72.896C769.543 73.52 769.247 74.424 769.247 75.608V83H766.511V69.776H769.247V71.288C769.695 70.744 770.263 70.32 770.951 70.016C771.655 69.712 772.399 69.56 773.183 69.56ZM781.185 76.328C781.185 75 781.457 73.824 782.001 72.8C782.561 71.776 783.313 70.984 784.257 70.424C785.217 69.848 786.281 69.56 787.449 69.56C788.313 69.56 789.161 69.752 789.993 70.136C790.841 70.504 791.513 71 792.009 71.624V65.24H794.769V83H792.009V81.008C791.561 81.648 790.937 82.176 790.137 82.592C789.353 83.008 788.449 83.216 787.425 83.216C786.273 83.216 785.217 82.928 784.257 82.352C783.313 81.76 782.561 80.944 782.001 79.904C781.457 78.848 781.185 77.656 781.185 76.328ZM792.009 76.376C792.009 75.464 791.817 74.672 791.433 74C791.065 73.328 790.577 72.816 789.969 72.464C789.361 72.112 788.705 71.936 788.001 71.936C787.297 71.936 786.641 72.112 786.033 72.464C785.425 72.8 784.929 73.304 784.545 73.976C784.177 74.632 783.993 75.416 783.993 76.328C783.993 77.24 784.177 78.04 784.545 78.728C784.929 79.416 785.425 79.944 786.033 80.312C786.657 80.664 787.313 80.84 788.001 80.84C788.705 80.84 789.361 80.664 789.969 80.312C790.577 79.96 791.065 79.448 791.433 78.776C791.817 78.088 792.009 77.288 792.009 76.376Z" fill="white" fill-opacity="0.8"/>
<defs>
<filter id="filter0_f_43_42" x="-182" y="-184" width="359" height="359" filterUnits="userSpaceOnUse" color-interpolation-filters="sRGB">
<feFlood flood-opacity="0" result="BackgroundImageFix"/>
<feBlend mode="normal" in="SourceGraphic" in2="BackgroundImageFix" result="shape"/>
<feGaussianBlur stdDeviation="50" result="effect1_foregroundBlur_43_42"/>
</filter>
<filter id="filter1_b_43_42" x="-50" y="-50" width="1328" height="357" filterUnits="userSpaceOnUse" color-interpolation-filters="sRGB">
<feFlood flood-opacity="0" result="BackgroundImageFix"/>
<feGaussianBlur in="BackgroundImageFix" stdDeviation="25"/>
<feComposite in2="SourceAlpha" operator="in" result="effect1_backgroundBlur_43_42"/>
<feBlend mode="normal" in="SourceGraphic" in2="effect1_backgroundBlur_43_42" result="shape"/>
</filter>
<linearGradient id="paint0_linear_43_42" x1="-54" y1="-11.366" x2="1188.17" y2="239.666" gradientUnits="userSpaceOnUse">
<stop stop-color="white" stop-opacity="0.05"/>
<stop offset="1" stop-color="white" stop-opacity="0"/>
</linearGradient>
<clipPath id="clip0_43_42">
<rect width="193" height="42" fill="white" transform="translate(84 153)"/>
</clipPath>
<clipPath id="clip1_43_42">
<rect width="194" height="49" fill="white" transform="translate(648 149)"/>
</clipPath>
<clipPath id="clip2_43_42">
<rect width="157" height="51" fill="white" transform="translate(384 148)"/>
</clipPath>
<clipPath id="clip3_43_42">
<rect width="194" height="44" fill="white" transform="translate(949 152)"/>
</clipPath>
</defs>
</svg>
